<?xml version="1.0" encoding="iso-8859-1"?>
<!-- Generator: Adobe Illustrator 21.1.0, SVG Export Plug-In . SVG Version: 6.00 Build 0)  -->
<svg version="1.1" id="Layer_1" xmlns="http://www.w3.org/2000/svg" xmlns:xlink="http://www.w3.org/1999/xlink" x="0px" y="0px"
	 viewBox="0 0 24 24" enable-background="new 0 0 24 24" xml:space="preserve">
<g>
	<path fill="#303C42" d="M21.6806641,11h-5.9714355c0.1504517-0.3173828,0.2593384-0.6164551,0.3151855-0.8598633
		c0.8662109-0.6005859,0.9990234-2.8603516,0.9990234-2.8867188c0-0.3793945-0.1318359-0.8999023-0.453125-1.230957
		c0.2265625-0.3930664,0.40625-0.9125977,0.4453125-1.4916992l0.3164063-0.2802734
		C17.4384766,4.1557617,17.5,4.0195313,17.5,3.8764648C17.5,2.012207,15.4882813,0,12.2382813,0
		c-1.8271484,0-2.7363281,0.5742188-3.0791016,0.8657227C8.2900391,1.0244141,6.9765625,2.046875,6.9765625,3.4545898
		L6.9736328,3.8662109C6.9658203,4.809082,6.9755859,5.4682617,7.0664063,5.9199219C6.6630859,6.2368164,6.5,6.8320313,6.5,7.253418
		c0,0.0263672,0.1328125,2.2861328,0.9990234,2.8867188C7.5548706,10.3835449,7.6637573,10.6826172,7.814209,11h-5.494873
		C1.0400391,11,0,12.0405273,0,13.3198242c0,0.1523438,0.0146484,0.3046875,0.0449219,0.4550781l1.7236328,8.6171875
		C1.9550781,23.3237305,2.7802734,24,3.7294922,24h16.5410156c0.9492188,0,1.7744141-0.6762695,1.9609375-1.6079102
		l1.7236328-8.6176758C23.9853516,13.6245117,24,13.472168,24,13.3198242C24,12.0405273,22.9599609,11,21.6806641,11z"/>
	<path fill="#CCCCCC" d="M8.4521484,9.7856445c0-0.2485352-0.1816406-0.4545898-0.4189453-0.4936523
		C7.7724609,9.0170898,7.5,7.6464844,7.5,7.253418c0-0.2231445,0.1142578-0.5527344,0.2167969-0.5527344
		c0.2080078,0,0.4160156-0.1035156,0.4892578-0.2973633c0.0732422-0.1943359,0.0410156-0.3891602-0.1142578-0.5268555
		C7.9589844,5.6269531,7.96875,4.4438477,7.9736328,3.875l0.0029297-0.4204102c0-0.9238281,1.0751953-1.6103516,1.4042969-1.6103516
		c0.1396484,0,0.2802734-0.0668945,0.375-0.1689453C9.7617188,1.668457,10.4023438,1,12.2382813,1
		c2.6210938,0,4.0869141,1.4838867,4.2470703,2.6645508l-0.2939453,0.2602539
		c-0.1064453,0.0947266-0.1679688,0.230957-0.1679688,0.3740234c0,0.7871094-0.3691406,1.3691406-0.5488281,1.527832
		c-0.1552734,0.1376953-0.2089844,0.3569336-0.1357422,0.5512695c0.0742188,0.1943359,0.2597656,0.3227539,0.4677734,0.3227539
		c0.1025391,0,0.2167969,0.3295898,0.2167969,0.5527344c0,0.3930664-0.2724609,1.7636719-0.5332031,2.0385742
		c-0.2373047,0.0390625-0.4189453,0.2451172-0.4189453,0.4936523c0,0.1323242-0.1445313,0.6401367-0.4931641,1.2143555H8.9453125
		C8.5966797,10.4257813,8.4521484,9.9179688,8.4521484,9.7856445z"/>
	<path fill="#F3F3F3" d="M22.9746094,13.5786133l-1.7236328,8.6171875C21.1572266,22.6616211,20.7451172,23,20.2705078,23H3.7294922
		c-0.4746094,0-0.8867188-0.3383789-0.9804688-0.8041992l-1.7236328-8.6166992C1.0087891,13.4936523,1,13.4067383,1,13.3198242
		C1,12.5922852,1.5917969,12,2.3193359,12h19.3613281C22.4082031,12,23,12.5922852,23,13.3198242
		C23,13.4067383,22.9912109,13.4936523,22.9746094,13.5786133z"/>
	<path opacity="0.2" fill="#FFFFFF" d="M7.979187,7.7325439c0-0.2231445,0.1142578-0.5527344,0.2167969-0.5527344
		c0.2080078,0,0.4160156-0.1035156,0.4892578-0.2973633c0.0732422-0.1943359,0.0410156-0.3891602-0.1142578-0.5268555
		C8.4381714,6.1060791,8.447937,4.9229736,8.4528198,4.354126l0.0029297-0.4204102
		c0-0.9238281,1.0751953-1.6103516,1.4042969-1.6103516c0.1396484,0,0.2802734-0.0668945,0.375-0.1689453
		c0.0058594-0.0068359,0.6464844-0.675293,2.4824219-0.675293c1.4273682,0,2.4987183,0.4453125,3.2166138,1.0368042
		C15.270874,1.6984253,14.0326538,1,12.2382813,1c-1.8359375,0-2.4765625,0.668457-2.4824219,0.675293
		c-0.0947266,0.1020508-0.2353516,0.1689453-0.375,0.1689453c-0.3291016,0-1.4042969,0.6865234-1.4042969,1.6103516L7.9736328,3.875
		C7.96875,4.4438477,7.9589844,5.6269531,8.0917969,5.8764648c0.1552734,0.1376953,0.1875,0.3325195,0.1142578,0.5268555
		c-0.0732422,0.1938477-0.28125,0.2973633-0.4892578,0.2973633C7.6142578,6.7006836,7.5,7.0302734,7.5,7.253418
		c0,0.3930664,0.2724609,1.7636719,0.5332031,2.0385742C8.1879272,9.3174438,8.3129883,9.4178467,8.385437,9.5508423
		C8.1703491,9.067749,7.979187,8.0614624,7.979187,7.7325439z"/>
	<path opacity="0.2" fill="#FFFFFF" d="M8.9313354,10.2647705c0-0.2485352-0.1816406-0.4545898-0.4189453-0.4936523
		C8.4832764,9.7404175,8.4541016,9.6919556,8.4251099,9.6368408c0.0149536,0.0474854,0.0270386,0.0964355,0.0270386,0.1488037
		c0,0.1323242,0.1445313,0.6401367,0.4931641,1.2143555h0.2270508C9.0081787,10.642334,8.9313354,10.3579712,8.9313354,10.2647705z"
		/>
	<path opacity="0.2" fill="#FFFFFF" d="M3.2282104,22.6749268l-1.7236328-8.6166992
		c-0.0166016-0.0854492-0.0253906-0.1723633-0.0253906-0.2592773c0-0.7275391,0.5917969-1.3198242,1.3193359-1.3198242h19.3613281
		c0.239563,0,0.4522095,0.081543,0.6460571,0.1936646C22.5775757,12.2782593,22.1682739,12,21.6806641,12H2.3193359
		C1.5917969,12,1,12.5922852,1,13.3198242c0,0.0869141,0.0087891,0.1738281,0.0253906,0.2592773l1.7236328,8.6166992
		c0.0643921,0.3199463,0.2844238,0.5704346,0.5662842,0.7017822C3.2814331,22.8258057,3.2443848,22.7554321,3.2282104,22.6749268z"
		/>
	<path fill="#303C42" d="M14.5498047,18.7172852c-0.3193359-0.0317383-0.4863281-0.1962891-0.4863281-0.2758789
		c0-0.0717773,0.1279297-0.2011719,0.3671875-0.2563477c0.171875-0.0400391,0.3095703-0.1669922,0.3632813-0.3344727
		c0.0546875-0.1674805,0.015625-0.3510742-0.1005859-0.4833984c-0.3632813-0.4125977-0.9384766-0.7006836-1.4003906-0.7006836
		c-0.1069336,0-0.2042847,0.0147705-0.3023071,0.0280762c0.5344238-0.2147827,0.8980103-0.661377,0.8980103-1.1945801
		c0-0.2763672-0.2236328-0.5-0.5-0.5c-0.9033203,0-1.6113281,0.5859375-1.6113281,1.3334961
		c0,0.2595215,0.199707,0.4654541,0.4525757,0.4904175c-0.1886597,0.0194092-0.3684082,0.0158081-0.5912476-0.038269
		c-0.2294922-0.0556641-0.4892578-0.1191406-0.7841797-0.1191406C10.0986328,16.6665039,9,17.3959961,9,18.5390625
		C9,19.6660156,10.0791016,21,10.9902344,21c0.4296875,0,0.6923828-0.0849609,0.8828125-0.1469727
		c0.2011719-0.0644531,0.2001953-0.0644531,0.3994141,0C12.4648438,20.9150391,12.7265625,21,13.1572266,21
		c0.7480469,0,1.4882813-0.8222656,1.8056641-1.5957031c0.0595703-0.1459961,0.046875-0.3115234-0.0341797-0.4472656
		C14.8476563,18.8217773,14.7070313,18.7329102,14.5498047,18.7172852z"/>
	<path fill="#F3F3F3" d="M13.1572266,20c-0.2724609,0-0.4199219-0.0478516-0.5761719-0.0981445
		c-0.1416016-0.0458984-0.3017578-0.0981445-0.5078125-0.0981445s-0.3662109,0.0522461-0.5078125,0.0981445
		C11.4091797,19.9521484,11.2617188,20,10.9902344,20C10.7490234,20,10,19.2236328,10,18.5390625
		c0-0.5629883,0.6416016-0.8725586,0.8544922-0.8725586c0.1748047,0,0.3554688,0.0439453,0.5478516,0.0908203
		c0.4267578,0.1040039,0.9160156,0.1040039,1.3427734,0c0.1914063-0.046875,0.3730469-0.0908203,0.5478516-0.0908203
		c0.0195198,0,0.0458984,0.003418,0.0771484,0.0107422c-0.1953125,0.2138672-0.3066406,0.4790039-0.3066406,0.7641602
		c0,0.4472656,0.2714844,0.8378906,0.6982422,1.0668945C13.5253906,19.8212891,13.2597656,20,13.1572266,20z"/>
	<linearGradient id="SVGID_1_" gradientUnits="userSpaceOnUse" x1="11.4797211" y1="17.4571686" x2="18.851387" y2="24.8288345">
		<stop  offset="0" style="stop-color:#010101;stop-opacity:0.1"/>
		<stop  offset="1" style="stop-color:#010101;stop-opacity:0"/>
	</linearGradient>
	<path fill="url(#SVGID_1_)" d="M13.7617188,15.1751709c0.076416,0.0877686,0.1269531,0.1991577,0.1269531,0.3248291
		c0,0.5332031-0.3635864,0.9797974-0.8980103,1.1945801c0.0980225-0.0133057,0.1953735-0.0280762,0.3023071-0.0280762
		c0.4619141,0,1.0371094,0.2880859,1.4003906,0.7006836c0.1162109,0.1323242,0.1552734,0.315918,0.1005859,0.4833984
		c-0.0537109,0.1674805-0.1914063,0.2944336-0.3632813,0.3344727c-0.2392578,0.0551758-0.3671875,0.1845703-0.3671875,0.2563477
		c0,0.0795898,0.1669922,0.2441406,0.4863281,0.2758789c0.1572266,0.015625,0.2978516,0.1044922,0.3789063,0.2397461
		c0.0810547,0.1357422,0.09375,0.3012695,0.0341797,0.4472656C14.6455078,20.1777344,13.9052734,21,13.1572266,21
		c-0.4306641,0-0.6923828-0.0849609-0.8847656-0.1469727c-0.1992188-0.0644531-0.1982422-0.0644531-0.3994141,0
		C11.6826172,20.9150391,11.4199219,21,10.9902344,21c-0.3001709,0-0.6160889-0.1539307-0.9080811-0.3883667l-0.0048218,0.0071411
		L12.4586182,23h7.8118896c0.3508301,0,0.6658325-0.1864014,0.8449707-0.4710693L13.7617188,15.1751709z"/>
	<linearGradient id="SVGID_2_" gradientUnits="userSpaceOnUse" x1="1.8328574" y1="8.8749447" x2="23.8166714" y2="19.1261654">
		<stop  offset="0" style="stop-color:#FFFFFF;stop-opacity:0.2"/>
		<stop  offset="1" style="stop-color:#FFFFFF;stop-opacity:0"/>
	</linearGradient>
	<path fill="url(#SVGID_2_)" d="M21.6806641,11h-5.9714355c0.1504517-0.3173828,0.2593384-0.6164551,0.3151855-0.8598633
		c0.8662109-0.6005859,0.9990234-2.8603516,0.9990234-2.8867188c0-0.3793945-0.1318359-0.8999023-0.453125-1.230957
		c0.2265625-0.3930664,0.40625-0.9125977,0.4453125-1.4916992l0.3164063-0.2802734
		C17.4384766,4.1557617,17.5,4.0195313,17.5,3.8764648C17.5,2.012207,15.4882813,0,12.2382813,0
		c-1.8271484,0-2.7363281,0.5742188-3.0791016,0.8657227C8.2900391,1.0244141,6.9765625,2.046875,6.9765625,3.4545898
		L6.9736328,3.8662109C6.9658203,4.809082,6.9755859,5.4682617,7.0664063,5.9199219C6.6630859,6.2368164,6.5,6.8320313,6.5,7.253418
		c0,0.0263672,0.1328125,2.2861328,0.9990234,2.8867188C7.5548706,10.3835449,7.6637573,10.6826172,7.814209,11h-5.494873
		C1.0400391,11,0,12.0405273,0,13.3198242c0,0.1523438,0.0146484,0.3046875,0.0449219,0.4550781l1.7236328,8.6171875
		C1.9550781,23.3237305,2.7802734,24,3.7294922,24h16.5410156c0.9492188,0,1.7744141-0.6762695,1.9609375-1.6079102
		l1.7236328-8.6176758C23.9853516,13.6245117,24,13.472168,24,13.3198242C24,12.0405273,22.9599609,11,21.6806641,11z"/>
</g>
<g>
</g>
<g>
</g>
<g>
</g>
<g>
</g>
<g>
</g>
<g>
</g>
<g>
</g>
<g>
</g>
<g>
</g>
<g>
</g>
<g>
</g>
<g>
</g>
<g>
</g>
<g>
</g>
<g>
</g>
</svg>
